<svg width="512" height="512" viewBox="0 0 512 512" fill="none" xmlns="http://www.w3.org/2000/svg">
  <rect width="512" height="512" rx="96" fill="#4F46E5"/>
  <!-- Document body -->
  <path d="M128 96a24 24 0 0 1 24-24h128l104 104v240a24 24 0 0 1-24 24H152a24 24 0 0 1-24-24V96Z" fill="white" opacity="0.15"/>
  <path d="M128 96a24 24 0 0 1 24-24h128l104 104v240a24 24 0 0 1-24 24H152a24 24 0 0 1-24-24V96Z" stroke="white" stroke-width="20" stroke-linejoin="round"/>
  <!-- Folded corner -->
  <path d="M280 72v80a24 24 0 0 0 24 24h80" stroke="white" stroke-width="20" stroke-linecap="round" stroke-linejoin="round"/>
  <!-- Resume lines -->
  <rect x="176" y="228" width="160" height="20" rx="10" fill="white"/>
  <rect x="176" y="280" width="108" height="20" rx="10" fill="white" opacity="0.6"/>
  <rect x="176" y="332" width="132" height="20" rx="10" fill="white" opacity="0.35"/>
</svg>
